<?xml version="1.0" encoding="UTF-8" standalone="no"?>
<!-- Created with Inkscape (http://www.inkscape.org/) -->

<svg
   xmlns:dc="http://purl.org/dc/elements/1.1/"
   xmlns:cc="http://creativecommons.org/ns#"
   xmlns:rdf="http://www.w3.org/1999/02/22-rdf-syntax-ns#"
   xmlns:svg="http://www.w3.org/2000/svg"
   xmlns="http://www.w3.org/2000/svg"
   xmlns:sodipodi="http://sodipodi.sourceforge.net/DTD/sodipodi-0.dtd"
   xmlns:inkscape="http://www.inkscape.org/namespaces/inkscape"
   width="230.55"
   height="230.55"
   id="svg2"
   version="1.1"
   inkscape:version="0.47 r22583"
   sodipodi:docname="Mystra symbol 1.svg">
  <title
     id="title3722">Holy symbol of Mystra</title>
  <defs
     id="defs4">
    <inkscape:perspective
       sodipodi:type="inkscape:persp3d"
       inkscape:vp_x="0 : 526.18109 : 1"
       inkscape:vp_y="0 : 1000 : 0"
       inkscape:vp_z="744.09448 : 526.18109 : 1"
       inkscape:persp3d-origin="372.04724 : 350.78739 : 1"
       id="perspective10" />
    <inkscape:perspective
       id="perspective2824"
       inkscape:persp3d-origin="0.5 : 0.33333333 : 1"
       inkscape:vp_z="1 : 0.5 : 1"
       inkscape:vp_y="0 : 1000 : 0"
       inkscape:vp_x="0 : 0.5 : 1"
       sodipodi:type="inkscape:persp3d" />
    <inkscape:perspective
       id="perspective3658"
       inkscape:persp3d-origin="0.5 : 0.33333333 : 1"
       inkscape:vp_z="1 : 0.5 : 1"
       inkscape:vp_y="0 : 1000 : 0"
       inkscape:vp_x="0 : 0.5 : 1"
       sodipodi:type="inkscape:persp3d" />
    <inkscape:perspective
       id="perspective3680"
       inkscape:persp3d-origin="0.5 : 0.33333333 : 1"
       inkscape:vp_z="1 : 0.5 : 1"
       inkscape:vp_y="0 : 1000 : 0"
       inkscape:vp_x="0 : 0.5 : 1"
       sodipodi:type="inkscape:persp3d" />
  </defs>
  <sodipodi:namedview
     id="base"
     pagecolor="#ffffff"
     bordercolor="#666666"
     borderopacity="1.0"
     inkscape:pageopacity="0.0"
     inkscape:pageshadow="2"
     inkscape:zoom="4.6193766"
     inkscape:cx="61.349472"
     inkscape:cy="40.790789"
     inkscape:document-units="px"
     inkscape:current-layer="layer1"
     showgrid="false"
     showguides="true"
     inkscape:guide-bbox="true"
     inkscape:window-width="1280"
     inkscape:window-height="780"
     inkscape:window-x="-8"
     inkscape:window-y="-8"
     inkscape:window-maximized="1" />
  <metadata
     id="metadata7">
    <rdf:RDF>
      <cc:Work
         rdf:about="">
        <dc:format>image/svg+xml</dc:format>
        <dc:type
           rdf:resource="http://purl.org/dc/dcmitype/StillImage" />
        <dc:title>Holy symbol of Mystra</dc:title>
      </cc:Work>
    </rdf:RDF>
  </metadata>
  <g
     inkscape:label="Layer 1"
     inkscape:groupmode="layer"
     id="layer1"
     transform="translate(-290.48027,-203.94561)">
    <path
       style="color:#000000;fill:#adcfff;fill-opacity:1;fill-rule:nonzero;stroke:#75a9ff;stroke-width:2.02901006;stroke-linecap:round;stroke-linejoin:round;stroke-miterlimit:4;stroke-opacity:1;stroke-dasharray:none;stroke-dashoffset:0;marker:none;visibility:visible;display:inline;overflow:visible;enable-background:accumulate"
       d="m 405.80404,205.23512 -6.73085,30.43516 c -18.07704,1.43847 -34.56921,8.61723 -47.60369,19.70481 l -26.33812,-16.77836 16.77836,26.33812 c -11.08758,13.03448 -18.26634,29.52665 -19.70481,47.60369 l -30.43515,6.73085 30.43515,6.73086 c 1.43641,18.04742 8.64445,34.49975 19.70481,47.50614 l -16.77836,26.33812 26.33812,-16.77836 c 13.04116,11.09117 29.50567,18.26737 47.60369,19.70481 l 6.73085,30.43515 6.73086,-30.43515 c 18.09439,-1.43744 34.58176,-8.61364 47.60369,-19.70481 l 26.24057,16.77836 -16.77836,-26.24057 c 11.09117,-13.02193 18.26737,-29.5093 19.70481,-47.60369 l 30.43516,-6.73086 -30.43516,-6.73085 c -1.43744,-18.09802 -8.61364,-34.56253 -19.70481,-47.60369 l 16.77836,-26.33812 -26.33812,16.77836 c -13.00639,-11.06036 -29.45872,-18.2684 -47.50614,-19.70481 l -6.73086,-30.43516 z m -9.75485,44.09196 -6.73085,30.24005 -26.24057,-16.77835 c 9.47061,-7.01342 20.74598,-11.79654 32.97142,-13.4617 z m 19.50971,0 c 12.22067,1.66516 23.51582,6.44828 32.97141,13.4617 l -26.33811,16.77835 -6.6333,-30.24005 z m 46.82331,26.9234 c 7.43083,9.51047 12.55083,20.97931 14.43719,33.45916 l -31.41064,-6.92595 16.97345,-26.53321 z m -113.15633,0.0974 16.8759,26.43566 -31.31309,6.92595 c 1.88782,-12.45335 7.01641,-23.86325 14.43719,-33.36161 z m -14.82738,52.28603 31.70328,7.0235 -17.85139,27.89889 c -7.4439,-9.93547 -12.38845,-21.94244 -13.85189,-34.92239 z m 142.71354,0 c -1.465,13.02762 -6.37758,25.06289 -13.85189,35.01993 l -17.85139,-27.99643 31.70328,-7.0235 z m -87.7937,30.24005 7.31614,32.87387 c -13.26326,-1.69204 -25.42112,-7.0288 -35.41013,-14.92493 l 28.09399,-17.94894 z m 32.87386,0 28.19154,17.94894 c -9.97921,7.91158 -22.1361,13.23089 -35.41013,14.92493 l 7.21859,-32.87387 z"
       id="path3670-1" />
  </g>
</svg>
